<svg width="688" height="72" xmlns="http://www.w3.org/2000/svg" xmlns:xlink="http://www.w3.org/1999/xlink" xml:space="preserve" overflow="hidden"><g transform="translate(-209 -484)"><g><g><g><path d="M210.383 68.4611 210.383 68.4611 221.922 105.576 226.922 105.576 238.652 68.4611 238.845 68.4611 238.845 105.576 244.229 105.576 244.229 63.8457 235.383 63.8457 224.806 98.8455 224.614 98.8455 214.037 63.8457 205.383 63.8457 205.383 105.576 210.383 105.576 210.383 68.4611Z" fill="#00274C" fill-rule="nonzero" fill-opacity="1" transform="matrix(1.00215 0 0 1 135.891 423.033)"/><path d="M251.537 63.8457 256.921 63.8457 256.921 105.576 251.537 105.576Z" fill="#00274C" fill-rule="nonzero" fill-opacity="1" transform="matrix(1.00215 0 0 1 135.891 423.033)"/><path d="M288.075 75.3841C288.652 67.3072 285.383 63.0765 277.114 63.0765 268.844 63.0765 263.652 66.3457 263.652 78.2687L263.652 89.9994C263.652 106.153 271.537 106.538 276.729 106.538 279.421 106.538 288.652 106.538 288.46 93.4609L282.883 93.4609C282.883 101.538 277.883 102.115 276.344 102.115 272.306 102.115 268.844 100.961 268.844 90.7686L268.844 79.6149C268.844 72.4995 269.806 71.3457 269.998 70.9611 270.191 70.3841 271.921 67.6919 276.344 67.6919 277.498 67.6919 279.998 68.0765 280.96 69.4226 282.113 70.7688 282.306 73.0764 282.113 75.3841L288.075 75.3841Z" fill="#00274C" fill-rule="nonzero" fill-opacity="1" transform="matrix(1.00215 0 0 1 135.891 423.033)"/><path d="M299.421 105.576 299.421 86.5379 314.036 86.5379 314.036 105.576 319.421 105.576 319.421 63.8457 314.036 63.8457 314.036 81.9225 299.421 81.9225 299.421 63.8457 294.036 63.8457 294.036 105.576 299.421 105.576Z" fill="#00274C" fill-rule="nonzero" fill-opacity="1" transform="matrix(1.00215 0 0 1 135.891 423.033)"/><path d="M327.113 63.8457 332.498 63.8457 332.498 105.576 327.113 105.576Z" fill="#00274C" fill-rule="nonzero" fill-opacity="1" transform="matrix(1.00215 0 0 1 135.891 423.033)"/><path d="M365.382 74.9995C365.767 66.3457 361.536 63.0765 352.498 63.0765 343.652 63.0765 339.421 68.4611 339.421 76.7303L339.421 90.384C339.421 101.922 343.652 106.538 352.498 106.538 357.882 106.538 361.921 105.192 365.19 103.461L365.19 83.0764 352.113 83.0764 352.113 87.6917 359.805 87.6917 359.805 99.9993C358.651 100.769 356.151 101.922 352.305 101.922 347.305 101.922 344.613 99.6147 344.613 90.5763L344.613 76.5379C344.613 67.8842 350.575 67.4995 352.305 67.4995 357.69 67.4995 359.613 70.1918 359.613 74.9995L365.382 74.9995Z" fill="#00274C" fill-rule="nonzero" fill-opacity="1" transform="matrix(1.00215 0 0 1 135.891 423.033)"/><path d="M368.651 105.576 374.036 105.576 377.113 95.5763 393.267 95.5763 396.344 105.576 402.305 105.576 388.651 63.8457 381.921 63.8457 368.651 105.576ZM391.92 90.9609 378.651 90.9609 385.19 68.8457 385.382 68.8457 391.92 90.9609Z" fill="#00274C" fill-rule="nonzero" fill-opacity="1" transform="matrix(1.00215 0 0 1 135.891 423.033)"/><path d="M429.228 63.8457 429.228 99.4224 429.036 99.4224 412.882 63.8457 405.382 63.8457 405.382 105.576 410.19 105.576 410.19 69.4226 410.382 69.4226 426.728 105.576 434.036 105.576 434.036 63.8457 429.228 63.8457Z" fill="#00274C" fill-rule="nonzero" fill-opacity="1" transform="matrix(1.00215 0 0 1 135.891 423.033)"/><path d="M478.843 105.576 478.843 100.961 462.305 100.961 462.305 86.5379 477.305 86.5379 477.305 81.9225 462.305 81.9225 462.305 68.4611 478.458 68.4611 478.458 63.8457 456.92 63.8457 456.92 105.576 478.843 105.576Z" fill="#00274C" fill-rule="nonzero" fill-opacity="1" transform="matrix(1.00215 0 0 1 135.891 423.033)"/><path d="M507.304 63.8457 507.304 99.4224 507.112 99.4224 490.958 63.8457 483.458 63.8457 483.458 105.576 488.266 105.576 488.266 69.4226 488.458 69.4226 504.804 105.576 512.112 105.576 512.112 63.8457 507.304 63.8457Z" fill="#00274C" fill-rule="nonzero" fill-opacity="1" transform="matrix(1.00215 0 0 1 135.891 423.033)"/><path d="M544.612 74.9995C544.996 66.3457 540.766 63.0765 531.727 63.0765 522.881 63.0765 518.65 68.4611 518.65 76.7303L518.65 90.384C518.65 101.922 522.881 106.538 531.727 106.538 537.112 106.538 541.15 105.192 544.419 103.461L544.419 83.0764 531.535 83.0764 531.535 87.6917 539.227 87.6917 539.227 99.9993C538.073 100.769 535.573 101.922 531.727 101.922 526.727 101.922 524.035 99.6147 524.035 90.5763L524.035 76.5379C524.035 67.8842 529.996 67.4995 531.727 67.4995 537.112 67.4995 539.035 70.1918 539.035 74.9995L544.612 74.9995Z" fill="#00274C" fill-rule="nonzero" fill-opacity="1" transform="matrix(1.00215 0 0 1 135.891 423.033)"/><path d="M552.496 63.8457 557.881 63.8457 557.881 105.576 552.496 105.576Z" fill="#00274C" fill-rule="nonzero" fill-opacity="1" transform="matrix(1.00215 0 0 1 135.891 423.033)"/><path d="M589.419 63.8457 589.419 99.4224 589.227 99.4224 573.073 63.8457 565.573 63.8457 565.573 105.576 570.381 105.576 570.381 69.4226 570.573 69.4226 586.919 105.576 594.227 105.576 594.227 63.8457 589.419 63.8457Z" fill="#00274C" fill-rule="nonzero" fill-opacity="1" transform="matrix(1.00215 0 0 1 135.891 423.033)"/><path d="M622.88 105.576 622.88 100.961 606.342 100.961 606.342 86.5379 621.342 86.5379 621.342 81.9225 606.342 81.9225 606.342 68.4611 622.496 68.4611 622.496 63.8457 600.958 63.8457 600.958 105.576 622.88 105.576Z" fill="#00274C" fill-rule="nonzero" fill-opacity="1" transform="matrix(1.00215 0 0 1 135.891 423.033)"/><path d="M649.226 105.576 649.226 100.961 632.688 100.961 632.688 86.5379 647.688 86.5379 647.688 81.9225 632.688 81.9225 632.688 68.4611 648.842 68.4611 648.842 63.8457 627.304 63.8457 627.304 105.576 649.226 105.576Z" fill="#00274C" fill-rule="nonzero" fill-opacity="1" transform="matrix(1.00215 0 0 1 135.891 423.033)"/><path d="M658.842 68.4611 666.919 68.4611C670.957 68.4611 672.496 71.7303 672.496 74.8072 672.496 78.461 670.573 81.7302 666.919 81.7302L659.034 81.7302 659.034 68.4611ZM664.996 86.3456C666.726 86.3456 670.957 86.5379 671.342 91.7302 671.726 97.307 671.534 102.692 672.88 105.576L678.457 105.576C677.688 102.884 677.111 96.5378 677.111 94.6148 676.726 86.1533 675.188 84.6148 670.38 83.8456L670.38 83.6533C675.188 82.8841 678.072 79.0379 678.072 74.2303 678.072 69.038 675.38 63.8457 668.072 63.8457L653.649 63.8457 653.649 105.576 659.034 105.576 659.034 86.3456 664.996 86.3456Z" fill="#00274C" fill-rule="nonzero" fill-opacity="1" transform="matrix(1.00215 0 0 1 135.891 423.033)"/><path d="M683.842 63.8457 689.226 63.8457 689.226 105.576 683.842 105.576Z" fill="#00274C" fill-rule="nonzero" fill-opacity="1" transform="matrix(1.00215 0 0 1 135.891 423.033)"/><path d="M720.764 63.8457 720.764 99.4224 720.572 99.4224 704.418 63.8457 696.918 63.8457 696.918 105.576 701.726 105.576 701.726 69.4226 701.918 69.4226 718.264 105.576 725.572 105.576 725.572 63.8457 720.764 63.8457Z" fill="#00274C" fill-rule="nonzero" fill-opacity="1" transform="matrix(1.00215 0 0 1 135.891 423.033)"/><path d="M757.88 74.9995C758.264 66.3457 754.033 63.0765 744.995 63.0765 736.149 63.0765 731.918 68.4611 731.918 76.7303L731.918 90.384C731.918 101.922 736.149 106.538 744.995 106.538 750.38 106.538 754.418 105.192 757.687 103.461L757.687 83.0764 744.803 83.0764 744.803 87.6917 752.495 87.6917 752.495 99.9993C751.341 100.769 748.841 101.922 744.995 101.922 739.995 101.922 737.303 99.6147 737.303 90.5763L737.303 76.5379C737.303 67.8842 743.264 67.4995 744.995 67.4995 750.38 67.4995 752.303 70.1918 752.303 74.9995L757.88 74.9995Z" fill="#00274C" fill-rule="nonzero" fill-opacity="1" transform="matrix(1.00215 0 0 1 135.891 423.033)"/><path d="M122.115 118.461 103.076 92.3071 103.076 111.345 110.576 111.345 110.576 129.999 75.3841 129.999 75.3841 111.345 82.4995 111.345 82.4995 82.3071 75.3841 82.3071 75.3841 63.4611 102.884 63.4611 121.922 89.8071 141.153 63.4611 168.653 63.4611 168.653 82.1148 161.537 82.1148 161.537 111.345 168.653 111.345 168.653 129.999 133.461 129.999 133.461 111.345 140.961 111.345 140.961 92.3071 122.115 118.461Z" fill="#FFCB05" fill-rule="nonzero" fill-opacity="1" transform="matrix(1.00215 0 0 1 135.891 423.033)"/><path d="M470.189 130.191 470.189 129.422C471.151 129.422 471.92 129.23 471.92 128.461 471.92 128.268 471.92 127.884 471.728 127.691L471.343 126.345 466.343 126.345 465.958 127.499C465.958 127.884 465.766 128.076 465.766 128.461 465.766 129.422 466.728 129.615 467.689 129.615L467.689 130.384 461.92 130.384 461.92 129.615C463.458 129.615 463.843 129.23 464.42 127.691L468.266 117.307 468.074 116.922C469.612 116.345 470.189 116.153 470.958 115.576 471.151 116.538 471.343 116.73 471.535 117.692L474.612 127.307C475.189 129.038 475.381 129.422 476.92 129.615L476.92 130.384 470.189 130.384 470.189 130.191ZM469.035 118.845 466.92 124.615 470.958 124.615 469.035 118.845ZM419.805 127.115C419.228 128.076 417.69 130.576 413.843 130.576 409.613 130.576 406.92 127.499 406.92 123.268 406.92 119.422 409.228 115.768 414.036 115.768 416.536 115.768 417.882 116.73 418.651 117.499L419.613 116.538 419.613 120.768 419.036 120.961C418.843 120.192 418.459 119.422 417.497 118.461 417.113 118.076 415.959 117.115 414.613 117.115 412.113 117.115 409.997 119.23 409.997 122.884 409.997 125.961 411.728 128.845 414.997 128.845 417.497 128.845 418.459 127.499 419.036 126.345L419.805 127.115ZM422.113 130.191 422.113 129.422C423.651 129.23 423.651 129.038 423.651 127.499 423.651 126.922 423.651 126.538 423.651 125.961L423.651 119.999C423.651 119.038 423.651 118.076 423.651 117.692 423.651 116.922 423.266 116.73 422.113 116.538L422.113 115.768 428.074 115.768 428.074 116.538C426.92 116.73 426.536 116.73 426.343 117.499 426.151 117.884 426.151 119.038 426.151 119.807L426.151 121.73C427.305 121.73 428.266 121.922 429.42 121.922 430.574 121.922 431.536 121.922 432.689 121.73L432.689 119.422C432.689 116.922 432.689 116.73 430.766 116.538L430.766 115.768 436.92 115.768 436.92 116.538C435.189 116.73 435.189 116.73 435.189 119.422L435.189 125.384C435.189 125.961 435.189 127.691 435.189 128.076 435.189 128.845 435.766 129.038 436.728 129.038L436.728 129.807 430.574 129.807 430.574 129.038C431.92 128.845 432.305 128.845 432.497 127.884 432.497 127.499 432.497 126.922 432.497 125.961L432.497 123.461C431.343 123.461 430.382 123.268 429.228 123.268 428.074 123.268 427.113 123.268 425.766 123.461L425.766 125.961C425.766 128.845 425.766 128.845 427.689 129.038L427.689 129.807 422.113 130.191ZM439.612 130.191 439.612 129.422C440.959 129.23 441.343 129.038 441.343 127.691L441.343 125.961 441.343 120.192C441.343 117.307 441.343 117.115 439.612 116.922L439.612 116.153 445.574 116.153 445.574 116.922C443.843 117.115 443.843 117.115 443.843 120.192L443.843 125.961C443.843 126.538 443.843 128.076 443.843 128.461 443.843 129.23 444.42 129.615 445.382 129.615L445.382 130.384 439.612 130.384 439.612 130.191ZM399.42 130.191 399.42 129.422C400.767 129.23 401.151 129.038 401.151 127.691L401.151 125.961 401.151 120.192C401.151 117.307 401.151 117.115 399.42 116.922L399.42 116.153 405.19 116.153 405.19 116.922C403.459 117.115 403.459 117.115 403.459 120.192L403.459 125.961C403.459 126.538 403.459 128.076 403.459 128.461 403.651 129.23 404.036 129.615 404.997 129.615L404.997 130.384 399.42 130.384 399.42 130.191ZM390.574 130.191 390.574 129.422C392.305 129.23 392.305 129.23 392.305 126.538L392.305 119.422 387.305 130.191 386.151 130.191 381.536 119.23 381.344 127.499C381.344 128.845 381.536 129.23 383.074 129.23L383.074 129.999 378.267 129.999 378.267 129.23C379.421 129.23 379.805 129.038 379.997 128.076 379.997 127.691 380.19 126.538 380.19 125.768L380.382 119.807C380.382 119.422 380.382 118.653 380.382 118.268 380.382 116.922 380.19 116.73 378.844 116.73L378.844 115.961 383.267 115.961 387.69 126.73 392.497 115.961 396.728 115.961 396.728 116.73C394.997 116.922 394.997 116.922 394.997 119.23L394.997 124.999C394.997 125.961 394.997 127.115 394.997 127.884 394.997 128.845 395.382 129.038 396.536 129.23L396.536 129.999 390.574 129.999 390.574 130.191ZM477.689 130.191 477.689 129.422C478.843 129.422 479.228 129.422 479.42 128.461 479.612 127.499 479.612 119.23 479.612 117.692 478.843 116.922 478.458 116.922 477.497 116.73L477.497 115.961 481.728 115.961C482.881 117.692 483.074 118.076 485.189 120.576L489.035 125.384 489.035 119.23C489.035 116.922 489.035 116.922 486.728 116.73L486.728 115.961 492.304 115.961 492.304 116.73C490.766 116.73 490.574 117.115 490.574 119.422L490.381 130.384 489.612 130.384 488.266 128.845C487.689 128.076 486.92 127.307 486.343 126.538L480.766 119.615 480.766 126.922C480.766 129.23 480.958 129.23 483.074 129.422L483.074 130.191 477.689 130.191ZM359.998 123.076C359.998 127.884 356.728 130.576 352.882 130.576 348.844 130.576 345.575 127.691 345.575 123.076 345.575 119.23 348.075 115.768 352.69 115.768 356.921 115.768 359.998 118.845 359.998 123.076ZM352.882 129.23C353.651 129.23 354.805 128.845 355.767 127.499 356.728 125.961 356.921 124.615 356.921 122.691 356.921 120.961 356.344 119.23 355.382 118.268 354.998 117.884 354.036 117.115 352.882 117.115 351.728 117.115 350.767 117.884 350.382 118.268 349.421 119.422 348.844 120.961 348.844 122.884 348.844 124.807 349.036 126.153 350.19 127.691 350.959 128.845 352.113 129.23 352.882 129.23ZM361.344 129.422 361.344 130.191 367.113 130.191 367.113 129.422C365.574 129.23 365.382 129.23 365.382 127.691L365.382 123.653 366.921 123.653C368.459 123.653 369.421 123.845 369.421 125.384L370.19 125.384 370.19 120.768 369.421 120.768C369.421 122.307 368.844 122.499 367.113 122.499L365.19 122.499 365.19 117.307C365.767 117.307 365.959 117.307 366.921 117.307 369.613 117.307 370.574 117.307 370.959 119.422L371.728 119.422 371.536 115.961 361.151 115.961 361.151 116.73C362.113 116.922 362.69 116.922 362.69 117.499 362.69 117.884 362.882 119.422 362.882 119.999L362.882 124.999C362.882 125.384 362.882 127.115 362.882 127.499 363.075 129.038 362.882 129.23 361.344 129.422ZM239.998 129.999 239.998 129.23C241.345 129.038 241.729 128.845 241.729 127.499L241.729 125.768 241.729 119.999C241.729 117.115 241.729 116.922 239.998 116.73L239.998 115.961 245.768 115.961 245.768 116.73C244.037 116.922 244.037 116.922 244.037 119.999L244.037 125.768C244.037 126.345 244.037 127.884 244.037 128.268 244.037 129.038 244.614 129.422 245.575 129.422L245.575 130.191 239.998 130.191 239.998 129.999ZM302.306 129.999 302.306 129.23C303.652 129.038 304.036 128.845 304.036 127.499L304.036 125.768 304.036 119.999C304.036 117.115 304.036 116.922 302.306 116.73L302.306 115.961 308.075 115.961 308.075 116.73C306.344 116.922 306.344 116.922 306.344 119.999L306.344 125.768C306.344 126.345 306.344 127.884 306.344 128.268 306.344 129.038 306.921 129.422 307.883 129.422L307.883 130.191 302.306 130.191 302.306 129.999ZM222.883 129.999 222.883 129.23C224.037 129.23 224.422 129.23 224.614 128.268 224.806 127.307 224.806 119.038 224.806 117.499 224.037 116.73 223.652 116.73 222.691 116.538L222.691 115.768 226.922 115.768C228.075 117.499 228.268 117.884 230.383 120.384L234.422 125.191 234.422 119.23C234.422 116.922 234.422 116.922 232.114 116.73L232.114 115.961 237.691 115.961 237.691 116.73C236.152 116.73 235.96 117.115 235.96 119.422L235.768 130.384 234.998 130.384 233.652 128.845C233.075 128.076 232.306 127.307 231.729 126.538L226.152 119.615 226.152 126.922C226.152 129.23 226.345 129.23 228.46 129.422L228.46 130.191 222.883 130.191 222.883 129.999ZM290.575 125.576 291.344 125.576C292.113 127.884 293.46 129.038 295.575 129.038 297.113 129.038 298.46 128.461 298.46 126.922 298.46 125.384 296.921 124.615 296.152 124.422 295.575 124.23 294.998 124.038 294.421 123.845 293.267 123.461 291.152 122.499 291.152 119.807 291.152 117.115 293.267 115.768 295.575 115.768 296.536 115.768 297.69 115.961 298.844 116.73L299.613 116.153 299.998 120.384 299.229 120.576C299.036 119.615 298.844 119.23 298.267 118.461 297.498 117.499 296.729 117.115 295.575 117.115 294.036 117.115 293.267 117.884 293.267 119.038 293.267 120.768 294.998 121.345 296.536 121.73 297.306 121.922 298.075 122.307 298.652 122.499 299.806 123.076 300.767 124.422 300.767 126.153 300.767 128.653 298.844 130.576 295.767 130.576 293.844 130.576 292.69 129.807 292.113 129.422L290.96 128.653 290.575 125.576ZM313.844 129.999 313.844 129.422C315.19 129.422 315.575 128.845 315.575 127.884L315.575 117.499 313.844 117.499C312.306 117.499 311.152 117.499 311.152 119.999L310.383 119.999 310.575 115.961 323.459 115.961 323.652 119.999 322.882 119.999C322.69 117.499 321.729 117.499 320.19 117.499L318.459 117.499 318.459 127.884C318.459 129.038 318.844 129.422 320.19 129.422L320.19 129.999 313.844 129.999ZM212.114 115.961 212.114 116.73C210.191 116.922 210.191 116.922 210.191 119.999L210.191 123.268C210.191 124.999 210.191 126.538 211.152 127.884 211.922 128.845 213.076 129.038 213.652 129.038 215.575 129.038 216.729 128.076 217.306 126.345 217.691 124.999 217.691 122.499 217.691 120.961 217.691 120.384 217.691 118.845 217.691 118.268 217.691 116.922 216.922 116.922 215.768 116.922L215.768 116.153 221.152 116.153 221.152 116.922C219.806 116.922 219.614 117.115 219.422 118.653 219.422 119.038 219.229 122.884 219.229 123.461 219.229 124.615 219.037 125.576 218.845 126.538 217.883 130.384 214.229 130.576 213.268 130.576 212.499 130.576 210.96 130.384 209.614 129.615 207.499 128.268 207.499 126.153 207.499 123.845L207.499 120.576C207.499 119.038 207.499 118.461 207.499 118.076 207.306 117.115 206.922 117.115 205.96 116.922L205.96 116.153 212.114 115.961ZM262.114 115.961 262.114 116.73C260.768 116.922 260.575 117.307 259.421 120.192L255.191 130.384 254.421 130.384 250.575 119.999C249.614 117.307 249.421 116.922 248.075 116.73L248.075 115.961 254.806 115.961 254.806 116.73C253.652 116.73 252.883 116.73 252.883 117.692 252.883 118.076 253.075 118.461 253.46 119.615L255.96 126.73 258.844 119.23C259.037 118.653 259.229 118.076 259.229 117.692 259.229 116.73 258.268 116.538 257.306 116.538L257.306 115.768 262.114 115.768 262.114 115.961ZM329.036 129.999 329.036 129.23C330.19 129.038 330.575 129.038 330.767 128.845 331.152 128.461 331.152 128.076 331.152 126.538L331.152 124.038 327.498 118.268C326.536 116.73 326.536 116.73 325.19 116.73L325.19 115.961 332.498 115.961 332.498 116.73C330.959 116.73 330.382 116.73 330.382 117.499 330.382 117.884 330.575 118.268 330.959 118.845L333.075 122.307 334.998 118.845C335.382 118.076 335.575 117.692 335.575 117.307 335.575 116.538 334.998 116.538 334.036 116.538L334.036 115.768 339.613 115.768 339.613 116.538C338.267 116.538 337.69 116.922 336.152 119.615L334.036 123.268 334.036 126.153C334.036 128.653 334.036 128.845 336.152 129.038L336.152 129.807 329.036 129.999ZM274.229 129.999C274.229 129.038 274.421 127.307 274.614 126.345L273.844 126.345C273.267 128.845 271.921 128.653 269.806 128.653 267.883 128.653 267.498 128.076 267.498 127.307L267.498 123.268 269.037 123.268C270.767 123.268 271.344 123.461 271.344 124.999L272.114 124.999 272.114 120.384 271.344 120.384C271.152 121.73 270.96 122.115 269.037 122.115L267.498 122.115 267.498 117.115 269.229 117.115C271.537 117.115 272.498 117.307 272.883 119.23L273.46 119.23 273.46 115.961 263.46 115.961 263.46 116.73C264.421 116.922 264.998 116.922 264.998 117.499 265.191 117.884 265.191 119.422 265.191 119.999L265.191 124.999C265.191 125.384 265.191 127.115 265.191 127.499 265.191 129.038 264.998 129.23 263.46 129.23L263.46 129.999 274.229 129.999ZM461.151 123.845 461.151 124.615C459.805 124.615 459.805 124.999 459.805 127.691L459.805 128.845C458.651 129.615 457.112 130.576 454.42 130.576 449.612 130.576 447.305 126.922 447.305 123.268 447.305 118.845 450.382 115.768 454.228 115.768 456.535 115.768 458.074 116.73 459.228 117.307L459.997 116.538 460.189 120.961 459.612 121.153C459.228 120.384 458.843 119.422 457.882 118.268 457.497 117.884 456.535 117.307 454.997 117.307 452.497 117.307 450.574 119.422 450.574 123.461 450.574 126.73 452.112 129.422 454.997 129.422 456.535 129.422 457.305 128.268 457.497 128.268 457.689 127.884 457.882 127.499 457.689 126.922 457.689 125.191 457.305 124.999 455.766 124.999L455.766 124.23 461.151 124.23 461.151 123.845ZM280.767 122.499C281.152 122.499 281.729 122.691 282.113 122.691 283.652 122.691 284.998 121.345 284.998 120.384 284.998 118.845 284.229 117.307 281.729 117.307 281.344 117.307 281.152 117.307 280.96 117.307L280.96 122.499 280.767 122.499ZM280.767 125.576C280.767 128.845 280.767 129.23 282.498 129.23L282.498 129.999 276.537 129.999 276.537 129.23C278.075 129.038 278.267 128.845 278.267 127.307 278.267 126.73 278.267 126.153 278.267 125.576L278.267 120.384C278.267 118.653 278.267 118.076 278.267 117.692 278.075 116.922 277.69 116.73 276.537 116.73L276.537 115.961 282.883 115.961C286.344 115.961 287.498 117.692 287.498 119.615 287.498 120.961 286.729 122.691 284.613 123.268L287.113 127.691C288.075 129.422 288.46 129.807 289.613 129.807L289.613 130.191C289.229 130.191 289.037 130.191 288.652 130.191 285.96 130.191 284.806 129.23 283.844 126.922L283.075 125.191C282.306 123.461 281.921 123.461 280.575 123.461L280.575 125.576 280.767 125.576Z" fill="#00274C" fill-rule="nonzero" fill-opacity="1" transform="matrix(1.00215 0 0 1 135.891 423.033)"/><path d="M186.922 64.038 186.922 129.999" stroke="#00274C" stroke-width="1.92306" stroke-linecap="butt" stroke-linejoin="miter" stroke-miterlimit="10" stroke-opacity="1" fill="none" fill-rule="nonzero" transform="matrix(1.00215 0 0 1 135.891 423.033)"/></g></g></g></g></svg>